<svg width="15" height="14" viewBox="0 0 15 14" fill="none" xmlns="http://www.w3.org/2000/svg">
<path d="M2.8967 0.197583C2.66237 0.20467 2.45651 0.328342 2.28421 0.500627L1.99673 0.787639L5.11227 3.95994L5.56455 3.50765C5.83711 3.23509 5.83711 2.78506 5.56455 2.5125L3.55222 0.500627C3.35731 0.305718 3.13102 0.190391 2.8967 0.197583ZM8.29739 1.37907C11.0184 1.37907 13.2197 3.58035 13.2197 6.3014C13.2126 6.62092 13.6956 6.62092 13.6885 6.3014C13.6885 3.32702 11.2718 0.912155 8.28618 0.912155C7.98744 0.947942 8.00777 1.37106 8.2974 1.37907H8.29739ZM1.6644 1.11907L1.33435 1.44866C0.794288 1.98871 0.797852 2.69534 0.797852 3.02151C0.797852 4.37118 1.33743 6.70455 4.61606 9.98318C7.8947 13.2618 10.2285 13.8018 11.5782 13.8018C11.9044 13.8019 12.611 13.8054 13.1511 13.2654L13.4495 12.9669L10.334 9.79459L10.0071 10.1219C9.81345 10.3156 9.67051 10.3387 9.53152 10.3224C9.39255 10.3061 9.24887 10.2257 9.1438 10.1443C8.57087 9.70076 7.64325 9.06585 6.58856 8.01115C5.53387 6.95647 4.89895 6.02838 4.45538 5.45545C4.37407 5.35038 4.29366 5.20853 4.27731 5.06955C4.26093 4.93057 4.28608 4.78581 4.47964 4.59212L4.7804 4.29137L1.6644 1.11907ZM8.29739 2.31702C7.99173 2.32411 7.99173 2.77902 8.29739 2.78578C10.2418 2.78578 11.813 4.357 11.813 6.3014C11.8198 6.60704 12.275 6.60704 12.2818 6.3014C12.2818 4.10367 10.4951 2.31702 8.29739 2.31702ZM8.29739 3.72327C7.98459 3.72327 7.98459 4.19248 8.29739 4.19248C9.46514 4.19248 10.4063 5.13365 10.4063 6.3014C10.4063 6.61421 10.8755 6.61421 10.8755 6.3014C10.8755 4.88032 9.71848 3.72327 8.29739 3.72327ZM8.29739 5.59919C8.68849 5.59919 9.00189 5.9103 9.00189 6.3014C8.9948 6.62092 9.47773 6.62092 9.47064 6.3014C9.47064 5.65697 8.94183 5.12997 8.28618 5.12997C7.96239 5.14512 7.98482 5.61435 8.2974 5.59919H8.29739ZM11.5892 8.83053C11.4086 8.83053 11.2283 8.89885 11.092 9.03517L10.6654 9.46227L13.7814 12.635L14.0991 12.3173C14.2714 12.145 14.3945 11.9373 14.4017 11.703C14.4088 11.4687 14.294 11.2424 14.0991 11.0475L12.0868 9.03517C11.9505 8.89889 11.7697 8.83053 11.5892 8.83053Z" fill="#F5F5F5"/>
</svg>
