<svg width="16" height="15" viewBox="0 0 16 15" fill="none" xmlns="http://www.w3.org/2000/svg">
<path d="M3.14096 0.691724C2.90663 0.698811 2.70078 0.822483 2.52847 0.994767L2.241 1.28178L5.35654 4.45408L5.80881 4.00179C6.08138 3.72923 6.08137 3.2792 5.80881 3.00664L3.79648 0.994767C3.60157 0.799859 3.37528 0.684531 3.14096 0.691724ZM8.54165 1.87321C11.2627 1.87321 13.464 4.07449 13.464 6.79555C13.4569 7.11506 13.9398 7.11506 13.9327 6.79555C13.9327 3.82116 11.516 1.4063 8.53044 1.4063C8.2317 1.44208 8.25203 1.8652 8.54167 1.87321H8.54165ZM1.90866 1.61321L1.57861 1.9428C1.03855 2.48285 1.04211 3.18948 1.04211 3.51565C1.04211 4.86532 1.58169 7.19869 4.86032 10.4773C8.13896 13.756 10.4728 14.296 11.8224 14.296C12.1487 14.296 12.8553 14.2995 13.3953 13.7595L13.6938 13.461L10.5782 10.2887L10.2514 10.616C10.0577 10.8097 9.91478 10.8329 9.77579 10.8165C9.63681 10.8002 9.49313 10.7198 9.38806 10.6385C8.81513 10.1949 7.88751 9.55999 6.83282 8.50529C5.77813 7.45061 5.14322 6.52252 4.69965 5.94959C4.61833 5.84452 4.53792 5.70267 4.52158 5.56369C4.50519 5.42471 4.53035 5.27995 4.72391 5.08626L5.02466 4.78551L1.90866 1.61321ZM8.54166 2.81116C8.23599 2.81825 8.23599 3.27316 8.54166 3.27992C10.4861 3.27992 12.0573 4.85114 12.0573 6.79555C12.064 7.10118 12.5192 7.10118 12.526 6.79555C12.526 4.59781 10.7394 2.81116 8.54166 2.81116ZM8.54166 4.21741C8.22885 4.21741 8.22885 4.68662 8.54166 4.68662C9.70941 4.68662 10.6506 5.6278 10.6506 6.79555C10.6506 7.10835 11.1198 7.10835 11.1198 6.79555C11.1198 5.37446 9.96274 4.21741 8.54166 4.21741ZM8.54165 6.09333C8.93276 6.09333 9.24615 6.40444 9.24615 6.79555C9.23907 7.11506 9.722 7.11506 9.7149 6.79555C9.7149 6.15112 9.18609 5.62411 8.53044 5.62411C8.20666 5.63926 8.22909 6.10849 8.54167 6.09333H8.54165ZM11.8334 9.32467C11.6529 9.32467 11.4726 9.39299 11.3363 9.52931L10.9097 9.95641L14.0257 13.1292L14.3434 12.8115C14.5156 12.6392 14.6387 12.4315 14.6459 12.1972C14.653 11.9628 14.5383 11.7366 14.3434 11.5416L12.331 9.52931C12.1947 9.39303 12.014 9.32467 11.8334 9.32467Z" fill="#F5F5F5"/>
</svg>
